Coordinates
version=1
nRows=17
nColumns=40
inDegrees=yes

Units are S.I. units (second, meters, Newtons, ...)
If the header above contains a line with 'inDegrees', this indicates whether rotational values are in degrees (yes) or radians (no).

endheader
time	pelvis_tilt	pelvis_list	pelvis_rotation	pelvis_tx	pelvis_ty	pelvis_tz	hip_flexion_r	hip_adduction_r	hip_rotation_r	knee_angle_r	knee_angle_r_beta	ankle_angle_r	subtalar_angle_r	mtp_angle_r	hip_flexion_l	hip_adduction_l	hip_rotation_l	knee_angle_l	knee_angle_l_beta	ankle_angle_l	subtalar_angle_l	mtp_angle_l	lumbar_extension	lumbar_bending	lumbar_rotation	arm_flex_r	arm_add_r	arm_rot_r	elbow_flex_r	pro_sup_r	wrist_flex_r	wrist_dev_r	arm_flex_l	arm_add_l	arm_rot_l	elbow_flex_l	pro_sup_l	wrist_flex_l	wrist_dev_l
      0.43000000	     -5.13020425	     -4.03961160	     -6.84687016	     -0.22902634	      0.94204960	      0.29453114	      1.17360769	      4.40795864	    -26.41720436	     12.85371873	      0.22433971	      1.88145875	     16.61229430	      0.00000000	     28.16092267	    -15.51381011	    -26.67400073	     33.86614155	      0.59107567	     -7.64423237	      3.44962352	      0.00000000	      0.08454194	      3.02206774	      3.90662722	     44.08396895	    -16.11366889	     44.08396895	     75.22254119	     44.98045650	      0.00000000	      0.00000000	     44.08396895	    -16.11366889	     44.08396895	     75.22254119	     44.98045650	      0.00000000	      0.00000000
      0.43500000	     -5.33216850	     -4.27035490	     -6.86180873	     -0.22260894	      0.94091526	      0.29402733	      0.89253699	      4.55849441	    -26.60475062	     12.84941202	      0.22426455	      2.14199088	     17.04796889	      0.00000000	     28.46581240	    -15.39432717	    -26.54457296	     31.76999557	      0.55449103	     -7.71015820	      4.23180726	      0.00000000	      0.21935952	      3.27931309	      3.75263980	     44.08487996	    -16.11183845	     44.08487996	     75.22182554	     44.98063071	      0.00000000	      0.00000000	     44.08487996	    -16.11183845	     44.08487996	     75.22182554	     44.98063071	      0.00000000	      0.00000000
      0.44000000	     -5.08446522	     -3.79918622	     -6.24172921	     -0.21614516	      0.94040878	      0.29161635	      0.50314290	      3.40549824	    -28.61758060	     13.77106981	      0.24035051	      3.06980229	     19.17276947	      0.00000000	     28.12363889	    -13.70546527	    -25.57692753	     28.68266117	      0.50060688	     -8.51839700	      3.81726529	      0.00000000	     -0.05018958	      2.73225966	      2.57091516	     44.09415609	    -16.09326536	     44.09415609	     75.21462552	     44.98233016	      0.00000000	      0.00000000	     44.09415609	    -16.09326536	     44.09415609	     75.21462552	     44.98233016	      0.00000000	      0.00000000
      0.44500000	     -5.46862263	     -4.28496772	     -6.27495718	     -0.20980492	      0.93873244	      0.29116750	      0.38895157	      3.89731064	    -28.63079420	     13.73338751	      0.23969283	      3.28210831	     19.37870562	      0.00000000	     28.69532172	    -13.93289918	    -25.33796306	     26.78660732	      0.46751449	     -8.51130093	      4.65373083	      0.00000000	      0.25530093	      3.25528416	      2.37524932	     44.09493050	    -16.09172067	     44.09493050	     75.21403217	     44.98246560	      0.00000000	      0.00000000	     44.09493050	    -16.09172067	     44.09493050	     75.21403217	     44.98246560	      0.00000000	      0.00000000
      0.45000000	     -5.48115774	     -4.38945639	     -6.06198241	     -0.20345881	      0.93774795	      0.29005141	     -0.02648416	      3.79780363	    -29.19605870	     13.89960149	      0.24259381	      3.64057488	     20.05552413	      0.00000000	     28.60729176	    -13.31435018	    -24.60148694	     24.06721999	      0.42005223	     -9.18721494	      4.85438086	      0.00000000	      0.21561393	      3.33514107	      2.00391392	     44.09908972	    -16.08343823	     44.09908972	     75.21086375	     44.98317808	      0.00000000	      0.00000000	     44.09908972	    -16.08343823	     44.09908972	     75.21086375	     44.98317808	      0.00000000	      0.00000000
      0.45500000	     -5.91524016	     -4.99657818	     -6.18639625	     -0.19727633	      0.93579685	      0.28954251	     -0.02249320	      4.36832381	    -29.22081254	     14.02542415	      0.24478983	      3.85397394	     20.34995089	      0.00000000	     29.25009792	    -13.73471650	    -24.42452235	     22.31870430	      0.38953487	     -9.02051016	      5.64704525	      0.00000000	      0.48635389	      4.00646347	      1.72562975	     44.09945425	    -16.08271366	     44.09945425	     75.21058775	     44.98323920	      0.00000000	      0.00000000	     44.09945425	    -16.08271366	     44.09945425	     75.21058775	     44.98323920	      0.00000000	      0.00000000
      0.46000000	     -6.20857010	     -4.93369712	     -5.46930133	     -0.19069494	      0.93405668	      0.28701037	     -0.01512231	      3.86150215	    -30.86737118	     14.60621172	      0.25492649	      4.47037990	     21.75958236	      0.00000000	     29.49529919	    -12.53179285	    -22.84643941	     19.34602687	      0.33765187	     -9.96026058	      5.49675773	      0.00000000	      0.83307097	      3.94519641	      0.42717549	     44.10875158	    -16.06429972	     44.10875158	     75.20363570	     44.98472984	      0.00000000	      0.00000000	     44.10875158	    -16.06429972	     44.10875158	     75.20363570	     44.98472984	      0.00000000	      0.00000000
      0.46500000	     -6.57185023	     -5.34831640	     -5.27793611	     -0.18440464	      0.93220500	      0.28584494	     -0.08515245	      4.16791436	    -31.28133830	     14.72551994	      0.25700881	      4.67934998	     22.14873824	      0.00000000	     29.86333511	    -12.36742685	    -21.92967656	     16.94768051	      0.29579283	    -10.45461278	      5.91593235	      0.00000000	      1.11552807	      4.41203449	     -0.03137032	     44.11485337	    -16.05227884	     44.11485337	     75.19915551	     44.98564644	      0.00000000	      0.00000000	     44.11485337	    -16.05227884	     44.11485337	     75.19915551	     44.98564644	      0.00000000	      0.00000000
      0.47000000	     -7.11788691	     -5.96447304	     -5.29215522	     -0.17813531	      0.92998804	      0.28525561	     -0.00351904	      4.80983340	    -31.28409948	     14.72594308	      0.25701619	      4.87341887	     22.28979282	      0.00000000	     30.52836806	    -12.69474371	    -21.36587913	     14.98163939	      0.26147893	    -10.61142753	      6.95595495	      0.00000000	      1.55232905	      5.08725554	     -0.28302474	     44.11561299	    -16.05078636	     44.11561299	     75.19860286	     44.98575688	      0.00000000	      0.00000000	     44.11561299	    -16.05078636	     44.11561299	     75.19860286	     44.98575688	      0.00000000	      0.00000000
      0.47500000	     -7.45772451	     -6.26667420	     -4.79029082	     -0.17176313	      0.92795490	      0.28313416	     -0.00557520	      4.81737691	    -32.32452058	     15.13753763	      0.26419987	      5.21981937	     23.09142376	      0.00000000	     30.75163519	    -12.06875146	    -19.65456217	     12.18581847	      0.21268265	    -11.62176757	      6.51297311	      0.00000000	      1.90893717	      5.38587847	     -1.34897143	     44.12480409	    -16.03279378	     44.12480409	     75.19199941	     44.98703463	      0.00000000	      0.00000000	     44.12480409	    -16.03279378	     44.12480409	     75.19199941	     44.98703463	      0.00000000	      0.00000000
      0.48000000	     -8.00530372	     -6.92675948	     -4.79418669	     -0.16546667	      0.92563290	      0.28249715	      0.08211521	      5.50250586	    -32.31862679	     15.14518212	      0.26433329	      5.34353756	     23.15376897	      0.00000000	     31.39900909	    -12.44225806	    -19.01035872	     10.25476321	      0.17897938	    -11.88269975	      7.48464380	      0.00000000	      2.38352439	      6.09399444	     -1.60298606	     44.12572539	    -16.03099705	     44.12572539	     75.19134601	     44.98715690	      0.00000000	      0.00000000	     44.12572539	    -16.03099705	     44.12572539	     75.19134601	     44.98715690	      0.00000000	      0.00000000
      0.48500000	     -8.55229990	     -7.58918603	     -4.65735584	     -0.15929133	      0.92332904	      0.28134652	      0.18340778	      6.16566748	    -32.41138001	     15.14280180	      0.26429175	      5.32506807	     23.08359167	      0.00000000	     31.90936574	    -12.58034218	    -17.60797686	      7.92814761	      0.13837228	    -12.68568152	      7.52066633	      0.00000000	      2.85698974	      6.83489169	     -2.02670177	     44.12791291	    -16.02673566	     44.12791291	     75.18980053	     44.98744326	      0.00000000	      0.00000000	     44.12791291	    -16.02673566	     44.12791291	     75.18980053	     44.98744326	      0.00000000	      0.00000000
      0.49000000	     -9.07346489	     -8.19981410	     -4.42053271	     -0.15297747	      0.92089803	      0.27994830	      0.29409009	      6.68425147	    -32.81215689	     15.30345165	      0.26709562	      5.54829621	     23.37048922	      0.00000000	     32.41491791	    -12.63359697	    -16.15531105	      5.70406378	      0.09955469	    -13.38435361	      7.64607487	      0.00000000	      3.34312139	      7.46685468	     -2.73415086	     44.13120311	    -16.02033939	     44.13120311	     75.18749238	     44.98786322	      0.00000000	      0.00000000	     44.13120311	    -16.02033939	     44.13120311	     75.18749238	     44.98786322	      0.00000000	      0.00000000
      0.49500000	     -9.60145003	     -8.86296972	     -4.45605819	     -0.14660427	      0.91848395	      0.27931268	      0.39525949	      7.32179611	    -32.89924636	     15.41739364	      0.26908428	      5.66725673	     23.54397896	      0.00000000	     33.06913155	    -13.08175838	    -15.59847916	      4.05422633	      0.07075960	    -13.60039460	      8.74434311	      0.00000000	      3.82069291	      8.14373852	     -3.06635283	     44.13189206	    -16.01900211	     44.13189206	     75.18701160	     44.98794953	      0.00000000	      0.00000000	     44.13189206	    -16.01900211	     44.13189206	     75.18701160	     44.98794953	      0.00000000	      0.00000000
      0.50000000	    -10.21403367	     -9.58910389	     -4.43490117	     -0.14032614	      0.91593919	      0.27852188	      0.57478983	      8.06173657	    -32.92540260	     15.46488060	      0.26991308	      5.69046048	     23.54842420	      0.00000000	     33.87110764	    -13.53907289	    -14.78035151	      2.49978897	      0.04362955	    -13.95841500	      9.57880769	      0.00000000	      4.36953087	      8.89464569	     -3.44692412	     44.13268701	    -16.01745992	     44.13268701	     75.18645788	     44.98804847	      0.00000000	      0.00000000	     44.13268701	    -16.01745992	     44.13268701	     75.18645788	     44.98804847	      0.00000000	      0.00000000
      0.50500000	    -11.11646606	    -10.63036915	     -4.31131014	     -0.13425246	      0.91275369	      0.27738076	      1.03071072	      9.20218125	    -32.89687439	     15.38406672	      0.26850262	      5.53591841	     23.18341245	      0.00000000	     35.32367774	    -14.23791697	    -13.56409503	      1.52932201	      0.02669170	    -14.04906513	      9.99375159	      0.00000000	      5.24073661	      9.96842156	     -4.24243135	     44.13497980	    -16.01301711	     44.13497980	     75.18486723	     44.98832972	      0.00000000	      0.00000000	     44.13497980	    -16.01301711	     44.13497980	     75.18486723	     44.98832972	      0.00000000	      0.00000000
      0.51000000	    -11.95444131	    -11.62527562	     -4.37890474	     -0.12811939	      0.90976607	      0.27679989	      1.41155044	     10.32787647	    -32.64200282	     15.30460841	      0.26711581	      5.38412978	     22.78758065	      0.00000000	     36.84017821	    -15.09724572	    -13.15420014	      1.03764384	      0.01811030	    -13.73169145	     11.29300559	      0.00000000	      6.00568138	     10.90826167	     -4.88829095	     44.13796042	    -16.00725300	     44.13796042	     75.18281353	     44.98868651	      0.00000000	      0.00000000	     44.13796042	    -16.00725300	     44.13796042	     75.18281353	     44.98868651	      0.00000000	      0.00000000
